<svg width="105" height="33" viewBox="0 0 105 33" fill="none" xmlns="http://www.w3.org/2000/svg">
<path d="M29.4163 22V10.5496H31.8677V21.3388L30.513 19.9357H37.1413V22H29.4163ZM37.9778 22V13.3557H40.3969V22H37.9778ZM37.9294 12.2913V10.356H40.4292V12.2913H37.9294ZM44.1425 22L40.9815 13.3557H43.5135L45.5617 19.5648L47.6099 13.3557H50.1258L46.9648 22H44.1425ZM50.7285 22V13.3557H53.0186L53.0993 15.8716L52.9219 15.8232C53.0616 14.9523 53.3089 14.3234 53.6637 13.9363C54.0185 13.5493 54.5077 13.3557 55.1313 13.3557H55.9216V15.3555H55.1313C54.6797 15.3555 54.3088 15.4147 54.0185 15.5329C53.7282 15.6512 53.5078 15.8393 53.3573 16.0974C53.2175 16.3554 53.1476 16.7048 53.1476 17.1457V22H50.7285ZM60.1574 22.1935C59.2758 22.1935 58.5016 22.0108 57.835 21.6452C57.1792 21.2689 56.6685 20.7421 56.3029 20.0647C55.9481 19.3874 55.7707 18.5917 55.7707 17.6779C55.7707 16.764 55.9481 15.9737 56.3029 15.3071C56.6685 14.6298 57.1792 14.103 57.835 13.7267C58.5016 13.3503 59.2758 13.1622 60.1574 13.1622C61.039 13.1622 61.8077 13.3503 62.4636 13.7267C63.1194 14.103 63.6301 14.6298 63.9957 15.3071C64.3613 15.9737 64.544 16.764 64.544 17.6779C64.544 18.5917 64.3613 19.3874 63.9957 20.0647C63.6301 20.7421 63.1194 21.2689 62.4636 21.6452C61.8077 22.0108 61.039 22.1935 60.1574 22.1935ZM60.1574 20.3389C60.7595 20.3389 61.2218 20.1077 61.5443 19.6454C61.8776 19.1723 62.0443 18.5165 62.0443 17.6779C62.0443 16.8392 61.8776 16.1888 61.5443 15.7264C61.2218 15.2534 60.7595 15.0168 60.1574 15.0168C59.5553 15.0168 59.0876 15.2534 58.7543 15.7264C58.421 16.1888 58.2544 16.8392 58.2544 17.6779C58.2544 18.5165 58.421 19.1723 58.7543 19.6454C59.0876 20.1077 59.5553 20.3389 60.1574 20.3389ZM70.0607 22.258C69.0823 22.258 68.2383 22.0914 67.5287 21.7581C66.8191 21.4248 66.2654 20.9571 65.8676 20.355C65.4698 19.7529 65.244 19.0433 65.1903 18.2262L67.6577 18.1133C67.7115 18.5649 67.8405 18.9519 68.0448 19.2745C68.2491 19.5863 68.5179 19.8228 68.8512 19.9841C69.1952 20.1454 69.6092 20.226 70.093 20.226C70.5015 20.226 70.8456 20.1776 71.1251 20.0808C71.4154 19.9841 71.6358 19.8389 71.7864 19.6454C71.9369 19.4411 72.0121 19.1938 72.0121 18.9035C72.0121 18.6348 71.9476 18.4036 71.8186 18.2101C71.7003 18.0058 71.4584 17.823 71.0929 17.6617C70.7273 17.4897 70.1844 17.3231 69.464 17.1618C68.4856 16.936 67.7008 16.6833 67.1094 16.4038C66.5181 16.1243 66.0826 15.7748 65.8031 15.3555C65.5343 14.9255 65.3999 14.3879 65.3999 13.7428C65.3999 13.0547 65.5719 12.4526 65.916 11.9365C66.26 11.4204 66.7492 11.0173 67.3836 10.727C68.0287 10.4367 68.7974 10.2915 69.6898 10.2915C70.6467 10.2915 71.4477 10.4582 72.0928 10.7915C72.7486 11.1248 73.2593 11.5817 73.6249 12.1623C74.0012 12.7429 74.2323 13.4095 74.3184 14.1621L71.867 14.2911C71.824 13.8933 71.7111 13.5493 71.5283 13.259C71.3455 12.9579 71.0983 12.7268 70.7865 12.5655C70.4747 12.4042 70.0984 12.3236 69.6575 12.3236C69.1092 12.3236 68.6738 12.4472 68.3512 12.6945C68.0394 12.9418 67.8835 13.2643 67.8835 13.6621C67.8835 13.9417 67.9534 14.1782 68.0932 14.3717C68.233 14.5545 68.4749 14.7158 68.8189 14.8556C69.163 14.9953 69.6468 15.1297 70.2704 15.2588C71.324 15.4738 72.1573 15.748 72.7701 16.0813C73.3937 16.4038 73.8345 16.7909 74.0926 17.2424C74.3614 17.694 74.4958 18.2101 74.4958 18.7907C74.4958 19.5003 74.313 20.1185 73.9474 20.6453C73.5926 21.1614 73.0819 21.5592 72.4153 21.8387C71.7595 22.1183 70.9746 22.258 70.0607 22.258ZM78.1681 22.1935C77.265 22.1935 76.5339 21.9892 75.9748 21.5807C75.4157 21.1614 75.1362 20.5808 75.1362 19.8389C75.1362 19.0756 75.3727 18.4896 75.8458 18.081C76.3296 17.6617 77.0392 17.3553 77.9746 17.1618L80.7646 16.6135C80.7646 16.0544 80.6356 15.6351 80.3776 15.3555C80.1303 15.0652 79.7647 14.9201 79.2809 14.9201C78.8294 14.9201 78.4746 15.0276 78.2165 15.2426C77.9585 15.4469 77.7865 15.7533 77.7004 16.1619L75.2813 16.049C75.4426 15.1029 75.8673 14.3879 76.5554 13.9041C77.2543 13.4095 78.1628 13.1622 79.2809 13.1622C80.5711 13.1622 81.5441 13.4686 82.2 14.0815C82.8558 14.6943 83.1838 15.5921 83.1838 16.7747V19.726C83.1838 19.9733 83.2214 20.14 83.2966 20.226C83.3827 20.3012 83.5063 20.3389 83.6676 20.3389H83.9095V22C83.8342 22.0215 83.7106 22.043 83.5386 22.0645C83.3773 22.086 83.2106 22.0968 83.0386 22.0968C82.7053 22.0968 82.3881 22.0376 82.0871 21.9194C81.786 21.8011 81.5441 21.6022 81.3614 21.3226C81.1893 21.0324 81.1033 20.6238 81.1033 20.097L81.313 20.2582C81.2055 20.6453 81.0119 20.984 80.7324 21.2743C80.4636 21.5646 80.1088 21.7903 79.668 21.9516C79.2379 22.1129 78.738 22.1935 78.1681 22.1935ZM78.7487 20.5324C79.1465 20.5324 79.496 20.4571 79.797 20.3066C80.098 20.1454 80.3346 19.9142 80.5066 19.6131C80.6786 19.3121 80.7646 18.9573 80.7646 18.5487V18.1294L78.7971 18.5487C78.3993 18.624 78.1036 18.753 77.9101 18.9358C77.7166 19.1078 77.6198 19.3336 77.6198 19.6131C77.6198 19.9034 77.7166 20.1292 77.9101 20.2905C78.1036 20.4518 78.3832 20.5324 78.7487 20.5324ZM87.1894 22.1935C86.2863 22.1935 85.5552 21.9892 84.9961 21.5807C84.437 21.1614 84.1574 20.5808 84.1574 19.8389C84.1574 19.0756 84.394 18.4896 84.867 18.081C85.3509 17.6617 86.0605 17.3553 86.9959 17.1618L89.7859 16.6135C89.7859 16.0544 89.6569 15.6351 89.3988 15.3555C89.1516 15.0652 88.786 14.9201 88.3022 14.9201C87.8506 14.9201 87.4958 15.0276 87.2378 15.2426C86.9797 15.4469 86.8077 15.7533 86.7217 16.1619L84.3026 16.049C84.4639 15.1029 84.8886 14.3879 85.5767 13.9041C86.2755 13.4095 87.184 13.1622 88.3022 13.1622C89.5924 13.1622 90.5654 13.4686 91.2212 14.0815C91.8771 14.6943 92.205 15.5921 92.205 16.7747V19.726C92.205 19.9733 92.2426 20.14 92.3179 20.226C92.4039 20.3012 92.5276 20.3389 92.6888 20.3389H92.9307V22C92.8555 22.0215 92.7318 22.043 92.5598 22.0645C92.3985 22.086 92.2319 22.0968 92.0599 22.0968C91.7266 22.0968 91.4094 22.0376 91.1083 21.9194C90.8073 21.8011 90.5654 21.6022 90.3826 21.3226C90.2106 21.0324 90.1246 20.6238 90.1246 20.097L90.3342 20.2582C90.2267 20.6453 90.0332 20.984 89.7536 21.2743C89.4849 21.5646 89.1301 21.7903 88.6892 21.9516C88.2592 22.1129 87.7592 22.1935 87.1894 22.1935ZM87.77 20.5324C88.1678 20.5324 88.5172 20.4571 88.8183 20.3066C89.1193 20.1454 89.3558 19.9142 89.5279 19.6131C89.6999 19.3121 89.7859 18.9573 89.7859 18.5487V18.1294L87.8184 18.5487C87.4206 18.624 87.1249 18.753 86.9314 18.9358C86.7378 19.1078 86.6411 19.3336 86.6411 19.6131C86.6411 19.9034 86.7378 20.1292 86.9314 20.2905C87.1249 20.4518 87.4044 20.5324 87.77 20.5324ZM98.2742 22.258C97.2958 22.258 96.4518 22.0914 95.7422 21.7581C95.0326 21.4248 94.4789 20.9571 94.0811 20.355C93.6833 19.7529 93.4575 19.0433 93.4037 18.2262L95.8712 18.1133C95.925 18.5649 96.054 18.9519 96.2583 19.2745C96.4626 19.5863 96.7313 19.8228 97.0646 19.9841C97.4087 20.1454 97.8226 20.226 98.3065 20.226C98.715 20.226 99.0591 20.1776 99.3386 20.0808C99.6289 19.9841 99.8493 19.8389 99.9998 19.6454C100.15 19.4411 100.226 19.1938 100.226 18.9035C100.226 18.6348 100.161 18.4036 100.032 18.2101C99.9138 18.0058 99.6719 17.823 99.3063 17.6617C98.9408 17.4897 98.3978 17.3231 97.6775 17.1618C96.6991 16.936 95.9142 16.6833 95.3229 16.4038C94.7315 16.1243 94.2961 15.7748 94.0166 15.3555C93.7478 14.9255 93.6134 14.3879 93.6134 13.7428C93.6134 13.0547 93.7854 12.4526 94.1295 11.9365C94.4735 11.4204 94.9627 11.0173 95.5971 10.727C96.2421 10.4367 97.0109 10.2915 97.9033 10.2915C98.8602 10.2915 99.6612 10.4582 100.306 10.7915C100.962 11.1248 101.473 11.5817 101.838 12.1623C102.215 12.7429 102.446 13.4095 102.532 14.1621L100.08 14.2911C100.037 13.8933 99.9246 13.5493 99.7418 13.259C99.559 12.9579 99.3117 12.7268 98.9999 12.5655C98.6881 12.4042 98.3118 12.3236 97.871 12.3236C97.3227 12.3236 96.8872 12.4472 96.5647 12.6945C96.2529 12.9418 96.097 13.2643 96.097 13.6621C96.097 13.9417 96.1669 14.1782 96.3067 14.3717C96.4464 14.5545 96.6883 14.7158 97.0324 14.8556C97.3764 14.9953 97.8603 15.1297 98.4839 15.2588C99.5375 15.4738 100.371 15.748 100.984 16.0813C101.607 16.4038 102.048 16.7909 102.306 17.2424C102.575 17.694 102.709 18.2101 102.709 18.7907C102.709 19.5003 102.526 20.1185 102.161 20.6453C101.806 21.1614 101.295 21.5592 100.629 21.8387C99.9729 22.1183 99.1881 22.258 98.2742 22.258Z" fill="black"/>
<g clip-path="url(#clip0_6407_794)">
<path d="M18.748 13.4058H11.8233L9.67639 7.05566L7.52943 13.4058H0.604736L6.19892 17.3369L4.05196 23.687L9.67639 19.756L15.2706 23.687L13.1236 17.3369L18.748 13.4058Z" fill="#586672"/>
<path d="M13.9703 12.5894L15.1798 9.14221L12.0047 11.3194L12.4583 12.5894H13.9703ZM8.43656 21.5704L9.67635 25.199L10.9161 21.5704L9.67635 20.7237L8.43656 21.5704ZM15.331 16.8229L14.1819 17.6091L14.6658 19.0606H18.5666L15.331 16.8229ZM7.34796 11.3194L4.17288 9.14221L5.38243 12.5894H6.89438L7.34796 11.3194ZM4.02169 16.8229L0.786133 19.0606H4.68694L5.17076 17.6091L4.02169 16.8229Z" fill="#111827"/>
</g>
<defs>
<clipPath id="clip0_6407_794">
<rect width="19.3529" height="19.3529" fill="white" transform="translate(0 6.45093)"/>
</clipPath>
</defs>
</svg>
