<svg width="20" height="20" viewBox="0 0 20 20" fill="none" xmlns="http://www.w3.org/2000/svg">
<g clip-path="url(#clip0_6407_796)">
<path d="M18.748 6.95489H11.8233L9.67639 0.604736L7.52943 6.95489H0.604736L6.19892 10.8859L4.05196 17.2361L9.67639 13.305L15.2706 17.2361L13.1236 10.8859L18.748 6.95489Z" fill="#586672"/>
<path d="M13.9703 6.13851L15.1798 2.69128L12.0047 4.86848L12.4583 6.13851H13.9703ZM8.43656 15.1194L9.67635 18.7481L10.9161 15.1194L9.67635 14.2728L8.43656 15.1194ZM15.331 10.3719L14.1819 11.1582L14.6658 12.6096H18.5666L15.331 10.3719ZM7.34796 4.86848L4.17288 2.69128L5.38243 6.13851H6.89438L7.34796 4.86848ZM4.02169 10.3719L0.786133 12.6096H4.68694L5.17076 11.1582L4.02169 10.3719Z" fill="#111827"/>
</g>
<defs>
<clipPath id="clip0_6407_796">
<rect width="19.3529" height="19.3529" fill="white"/>
</clipPath>
</defs>
</svg>
